<?xml version="1.0" encoding="UTF-8"?>
<svg width="256px" height="256px" viewBox="0 0 256 256" version="1.1" xmlns="http://www.w3.org/2000/svg">
    <g stroke="none" stroke-width="1" fill="none" fill-rule="evenodd">
        <path d="M88.942,163.343c0,0-11.135,6.486,7.926,8.684c23.139,2.662,34.956,2.284,60.422-2.564c0,0,6.704,4.197,16.081,7.835C108.363,199.513,43.152,173.814,88.942,163.343" fill="#F80000"/>
        <path d="M82.483,140.615c0,0-12.514,9.252,6.585,11.225c24.66,2.549,44.118,2.753,77.849-3.746c0,0,4.677,4.74,12.037,7.33C103.679,175.796,32.975,153.621,82.483,140.615" fill="#F80000"/>
        <path d="M142.018,101.644c14.067,16.185-3.698,30.749-3.698,30.749s35.898-18.533,19.405-41.73c-15.45-21.702-27.303-32.506,36.915-69.728C194.64,20.935,102.371,35.239,142.018,101.644" fill="#F80000"/>
        <path d="M206.931,183.858c0,0,8.241,6.794-9.075,12.051c-32.911,9.957-137.031,12.985-165.971,0.398c-10.407-4.539,9.109-10.834,15.252-12.15c6.403-1.392,10.068-1.134,10.068-1.134c-11.587-8.165-74.862,16.026-32.147,22.953C134.274,229.577,244.728,197.176,206.931,183.858" fill="#F80000"/>
        <path d="M95.62,117.813c0,0-53.047,12.605-18.782,17.185c14.469,1.94,43.319,1.502,70.23-0.751c21.975-1.834,44.017-5.732,44.017-5.732s-7.744,3.314-13.35,7.139c-53.933,14.185-158.197,7.583-128.165-6.923C71.339,116.305,95.62,117.813,95.62,117.813" fill="#F80000"/>
        <path d="M187.706,156.412c54.832-28.498,29.485-55.895,11.79-52.208c-4.343,0.906-6.286,1.693-6.286,1.693s1.616-2.529,4.695-3.623c35.037-12.316,61.961,36.336-11.303,55.569C186.602,157.843,187.337,157.077,187.706,156.412" fill="#F80000"/>
        <path d="M153.401,0c0,0,30.362,30.37-28.774,77.037c-47.392,37.407-10.804,58.734,0,83.044c-27.664-24.988-47.987-46.985-34.356-67.459C110.347,63.854,166.094,49.016,153.401,0" fill="#F80000"/>
        <path d="M97.534,210.945c52.659,3.369,133.503-1.872,135.528-26.752c0,0-3.685,9.43-43.527,16.904c-44.91,8.416-100.262,7.432-133.146,2.037C56.389,203.134,57.681,208.407,97.534,210.945" fill="#F80000"/>
    </g>
</svg>